<svg width="96" height="96" viewBox="0 0 96 96" fill="none" xmlns="http://www.w3.org/2000/svg">
<circle cx="48" cy="48" r="48" fill="#F5F6FB"/>
<path fill-rule="evenodd" clip-rule="evenodd" d="M32.7135 29.2755C33.151 28.8387 33.6762 28.4998 34.2545 28.2814C34.8327 28.063 35.4508 27.97 36.0678 28.0085C36.6847 28.047 37.2864 28.2162 37.833 28.5049C38.3796 28.7936 38.8586 29.1952 39.2383 29.683L43.7257 35.4483C44.5482 36.5058 44.8382 37.8834 44.5132 39.1834L43.1457 44.6587C43.0755 44.9423 43.0796 45.2392 43.1575 45.5208C43.2354 45.8024 43.3846 46.0591 43.5907 46.2663L49.733 52.409C49.9404 52.6155 50.1975 52.765 50.4795 52.8429C50.7616 52.9209 51.059 52.9247 51.3429 52.8541L56.8153 51.4865C57.4569 51.327 58.1262 51.315 58.7731 51.4514C59.42 51.5878 60.0276 51.8691 60.5502 52.274L66.315 56.7592C68.3874 58.3718 68.5774 61.4345 66.7225 63.287L64.1375 65.8722C62.2876 67.7222 59.5227 68.5348 56.9453 67.6272C50.3472 65.3086 44.357 61.5313 39.4208 56.5767C34.4669 51.6409 30.69 45.6512 28.3712 39.0534C27.4662 36.4783 28.2787 33.7107 30.1286 31.8606L32.7135 29.2755Z" fill="#0A228C" fill-opacity="0.75"/>
</svg>
