<svg width="96" height="96" viewBox="0 0 96 96" fill="none" xmlns="http://www.w3.org/2000/svg">
<circle cx="48" cy="48" r="48" fill="#F5F6FB"/>
<path d="M24.65 33.1833C24.9525 31.7108 25.696 30.396 26.7588 29.4544C27.8216 28.5127 29.1407 27.9999 30.5 28H66.5C67.8593 27.9999 69.1784 28.5127 70.2412 29.4544C71.304 30.396 72.0475 31.7108 72.35 33.1833L48.5 49.38L24.65 33.1833ZM24.5 36.99V60.67L41.909 48.81L24.5 36.99ZM44.783 50.7667L25.073 64.19C25.56 65.3309 26.3286 66.2948 27.2893 66.9693C28.2501 67.6438 29.3635 68.0012 30.5 68H66.5C67.6363 68.0003 68.7493 67.642 69.7095 66.967C70.6697 66.2919 71.4377 65.3277 71.924 64.1867L52.214 50.7633L48.5 53.2867L44.783 50.7667ZM55.091 48.8133L72.5 60.67V36.99L55.091 48.8133Z" fill="#0A228C" fill-opacity="0.75"/>
</svg>
