<svg width="64" height="64" viewBox="0 0 64 64" fill="none" xmlns="http://www.w3.org/2000/svg">
<path fill-rule="evenodd" clip-rule="evenodd" d="M0 60.4444C0 59.5015 0.306493 58.5971 0.852054 57.9303C1.39761 57.2635 2.13755 56.8889 2.90909 56.8889H61.0909C61.8624 56.8889 62.6024 57.2635 63.148 57.9303C63.6935 58.5971 64 59.5015 64 60.4444C64 61.3874 63.6935 62.2918 63.148 62.9586C62.6024 63.6254 61.8624 64 61.0909 64H2.90909C2.13755 64 1.39761 63.6254 0.852054 62.9586C0.306493 62.2918 0 61.3874 0 60.4444ZM0 32C0 31.057 0.306493 30.1526 0.852054 29.4858C1.39761 28.819 2.13755 28.4444 2.90909 28.4444H61.0909C61.8624 28.4444 62.6024 28.819 63.148 29.4858C63.6935 30.1526 64 31.057 64 32C64 32.943 63.6935 33.8474 63.148 34.5142C62.6024 35.181 61.8624 35.5556 61.0909 35.5556H2.90909C2.13755 35.5556 1.39761 35.181 0.852054 34.5142C0.306493 33.8474 0 32.943 0 32ZM0 3.55556C0 2.61256 0.306493 1.70819 0.852054 1.0414C1.39761 0.374603 2.13755 0 2.90909 0H61.0909C61.8624 0 62.6024 0.374603 63.148 1.0414C63.6935 1.70819 64 2.61256 64 3.55556C64 4.49855 63.6935 5.40292 63.148 6.06971C62.6024 6.73651 61.8624 7.11111 61.0909 7.11111H2.90909C2.13755 7.11111 1.39761 6.73651 0.852054 6.06971C0.306493 5.40292 0 4.49855 0 3.55556Z" fill="#1C1C1C"/>
</svg>
